<?xml version="1.0" encoding="UTF-8" standalone="no"?>
<!-- Created with Inkscape (http://www.inkscape.org/) -->

<svg
   xmlns:dc="http://purl.org/dc/elements/1.1/"
   xmlns:cc="http://creativecommons.org/ns#"
   xmlns:rdf="http://www.w3.org/1999/02/22-rdf-syntax-ns#"
   xmlns:svg="http://www.w3.org/2000/svg"
   xmlns="http://www.w3.org/2000/svg"
   xmlns:sodipodi="http://sodipodi.sourceforge.net/DTD/sodipodi-0.dtd"
   xmlns:inkscape="http://www.inkscape.org/namespaces/inkscape"
   width="68.26667"
   height="68.26667"
   viewBox="0 0 63.999999 63.999999"
   id="svg2"
   version="1.1"
   inkscape:version="0.92.1 r15371"
   sodipodi:docname="welsim_rst_rot.svg">
  <defs
     id="defs4">
    <inkscape:path-effect
       effect="spiro"
       id="path-effect4497"
       is_visible="true" />
    <inkscape:path-effect
       effect="spiro"
       id="path-effect4503"
       is_visible="true" />
    <inkscape:path-effect
       effect="spiro"
       id="path-effect4503-2"
       is_visible="true" />
    <inkscape:path-effect
       effect="spiro"
       id="path-effect4503-8"
       is_visible="true" />
  </defs>
  <sodipodi:namedview
     id="base"
     pagecolor="#ffffff"
     bordercolor="#666666"
     borderopacity="1.0"
     inkscape:pageopacity="0.0"
     inkscape:pageshadow="2"
     inkscape:zoom="8.9770972"
     inkscape:cx="35.95517"
     inkscape:cy="29.738944"
     inkscape:document-units="px"
     inkscape:current-layer="layer1"
     showgrid="false"
     units="px"
     showborder="true"
     inkscape:window-width="1454"
     inkscape:window-height="906"
     inkscape:window-x="2228"
     inkscape:window-y="29"
     inkscape:window-maximized="0" />
  <metadata
     id="metadata7">
    <rdf:RDF>
      <cc:Work
         rdf:about="">
        <dc:format>image/svg+xml</dc:format>
        <dc:type
           rdf:resource="http://purl.org/dc/dcmitype/StillImage" />
        <dc:title />
      </cc:Work>
    </rdf:RDF>
  </metadata>
  <g
     inkscape:label="Layer 1"
     inkscape:groupmode="layer"
     id="layer1"
     transform="translate(0,-988.3622)">
    <path
       style="fill:none;fill-rule:evenodd;stroke:#000000;stroke-width:1.87499988;stroke-linecap:butt;stroke-linejoin:miter;stroke-miterlimit:4;stroke-dasharray:none;stroke-opacity:1"
       d="m 12.924787,1042.0582 -9.1094757,9.0639"
       id="path4695"
       inkscape:connector-curvature="0" />
    <path
       style="fill:none;fill-rule:evenodd;stroke:#000000;stroke-width:2.81249976;stroke-linecap:butt;stroke-linejoin:miter;stroke-miterlimit:4;stroke-dasharray:none;stroke-opacity:1"
       d="m 14.19307,988.43363 v 63.57147"
       id="path4697"
       inkscape:connector-curvature="0" />
    <path
       style="fill:none;fill-rule:evenodd;stroke:#000000;stroke-width:1.87499976;stroke-linecap:butt;stroke-linejoin:miter;stroke-miterlimit:4;stroke-dasharray:none;stroke-opacity:1"
       d="m 12.973053,989.49282 -9.1094767,9.0639"
       id="path4695-3"
       inkscape:connector-curvature="0" />
    <path
       style="fill:none;fill-rule:evenodd;stroke:#000000;stroke-width:1.87499976;stroke-linecap:butt;stroke-linejoin:miter;stroke-miterlimit:4;stroke-dasharray:none;stroke-opacity:1"
       d="m 12.973053,1001.308 -9.1094767,9.0639"
       id="path4695-8"
       inkscape:connector-curvature="0" />
    <path
       style="fill:none;fill-rule:evenodd;stroke:#000000;stroke-width:1.87499976;stroke-linecap:butt;stroke-linejoin:miter;stroke-miterlimit:4;stroke-dasharray:none;stroke-opacity:1"
       d="m 12.97305,1014.7928 -9.1094728,9.0639"
       id="path4695-0"
       inkscape:connector-curvature="0" />
    <path
       style="fill:none;fill-rule:evenodd;stroke:#000000;stroke-width:1.87499976;stroke-linecap:butt;stroke-linejoin:miter;stroke-miterlimit:4;stroke-dasharray:none;stroke-opacity:1"
       d="m 12.973053,1028.9259 -9.1094763,9.0639"
       id="path4695-33"
       inkscape:connector-curvature="0" />
    <path
       style="fill:none;stroke:#3232ff;stroke-width:2.81249976;stroke-linecap:butt;stroke-linejoin:miter;stroke-miterlimit:4;stroke-dasharray:none;stroke-opacity:1"
       d="m 21.053692,1042.4094 c -0.280009,-1.7183 -0.02494,-3.5199 0.721051,-5.0929 0.745988,-1.573 1.979632,-2.9106 3.487331,-3.7811 1.507699,-0.8704 3.282865,-1.27 5.018134,-1.1296 1.735268,0.1405 3.423057,0.8204 4.771132,1.922 1.601985,1.3091 2.70713,3.2094 3.063243,5.2474 0.356114,2.0379 -0.03758,4.1967 -1.080997,5.9831 -1.043417,1.7865 -2.726782,3.1881 -4.66906,3.9006 -1.942278,0.7125 -4.128844,0.7328 -6.087468,0.066 -0.217446,-0.074 -0.432124,-0.1561 -0.643432,-0.2461"
       id="path4501"
       inkscape:connector-curvature="0"
       inkscape:path-effect="#path-effect4503"
       inkscape:original-d="m 21.053692,1042.4094 c 4.666591,-2.6945 9.332475,-5.3884 13.997648,-8.0816 4.665174,-2.693 -5.848812,10.131 -8.774282,15.1976 -2.925468,5.0665 -0.428246,-0.1648 -0.643432,-0.2461" />
    <path
       style="fill:none;stroke:#32ff32;stroke-width:2.81249976;stroke-linecap:butt;stroke-linejoin:miter;stroke-miterlimit:4;stroke-dasharray:none;stroke-opacity:1"
       d="m 21.456612,1021.516 c -0.280009,-1.7183 -0.02494,-3.5199 0.721051,-5.0929 0.745988,-1.573 1.979632,-2.9106 3.487331,-3.7811 1.507699,-0.8704 3.282865,-1.27 5.018134,-1.1296 1.735268,0.1405 3.423057,0.8204 4.771132,1.922 1.601985,1.3091 2.70713,3.2094 3.063243,5.2474 0.356114,2.0379 -0.03758,4.1967 -1.080997,5.9831 -1.043417,1.7865 -2.726782,3.1881 -4.66906,3.9006 -1.942278,0.7125 -4.128844,0.7328 -6.087468,0.067 -0.217446,-0.074 -0.432124,-0.1561 -0.643432,-0.2461"
       id="path4501-7"
       inkscape:connector-curvature="0"
       inkscape:path-effect="#path-effect4503-2"
       inkscape:original-d="m 21.456612,1021.516 c 4.666591,-2.6945 9.332475,-5.3884 13.997648,-8.0816 4.665173,-2.693 -5.848812,10.131 -8.774282,15.1976 -2.925468,5.0665 -0.428246,-0.1648 -0.643432,-0.2461" />
    <path
       style="fill:none;stroke:#ff3232;stroke-width:2.81249976;stroke-linecap:butt;stroke-linejoin:miter;stroke-miterlimit:4;stroke-dasharray:none;stroke-opacity:1"
       d="m 21.356956,1000.6295 c -0.280011,-1.71828 -0.02494,-3.5199 0.721057,-5.09291 0.745993,-1.57302 1.979645,-2.91055 3.487351,-3.78101 1.507705,-0.87047 3.282875,-1.27005 5.018141,-1.12958 1.735266,0.14048 3.423044,0.82041 4.771098,1.92206 1.601932,1.30912 2.707028,3.20937 3.06311,5.24731 0.356082,2.03794 -0.03762,4.19663 -1.081035,5.98303 -1.043411,1.7864 -2.726752,3.188 -4.668997,3.9005 -1.942245,0.7125 -4.128771,0.7328 -6.08736,0.067 -0.217446,-0.074 -0.432124,-0.1561 -0.643432,-0.2461"
       id="path4501-1"
       inkscape:connector-curvature="0"
       inkscape:path-effect="#path-effect4503-8"
       inkscape:original-d="m 21.356956,1000.6295 c 4.66659,-2.69434 9.332474,-5.38824 13.997647,-8.08144 4.665173,-2.693 -5.848812,10.13074 -8.774282,15.19734 -2.925467,5.0665 -0.428246,-0.1648 -0.643432,-0.2461" />
    <path
       style="fill:none;stroke:#000000;stroke-width:2.81249976;stroke-linecap:butt;stroke-linejoin:miter;stroke-miterlimit:4;stroke-dasharray:8.43749943, 8.43749943;stroke-dashoffset:0;stroke-opacity:1"
       d="m 56.289071,990.22013 v 63.70377"
       id="path4495"
       inkscape:connector-curvature="0"
       inkscape:path-effect="#path-effect4497"
       inkscape:original-d="m 56.289071,990.22013 v 63.70377" />
  </g>
</svg>
