<?xml version="1.0" encoding="UTF-8" standalone="no"?>
<!-- Created with Inkscape (http://www.inkscape.org/) -->

<svg
   xmlns:osb="http://www.openswatchbook.org/uri/2009/osb"
   xmlns:dc="http://purl.org/dc/elements/1.1/"
   xmlns:cc="http://creativecommons.org/ns#"
   xmlns:rdf="http://www.w3.org/1999/02/22-rdf-syntax-ns#"
   xmlns:svg="http://www.w3.org/2000/svg"
   xmlns="http://www.w3.org/2000/svg"
   xmlns:sodipodi="http://sodipodi.sourceforge.net/DTD/sodipodi-0.dtd"
   xmlns:inkscape="http://www.inkscape.org/namespaces/inkscape"
   width="64"
   height="64"
   viewBox="0 0 63.999999 63.999999"
   id="svg2"
   version="1.1"
   inkscape:version="0.91 r13725"
   sodipodi:docname="welsim_part.svg">
  <defs
     id="defs4">
    <linearGradient
       id="linearGradient5250"
       osb:paint="solid">
      <stop
         style="stop-color:#3232ff;stop-opacity:1;"
         offset="0"
         id="stop5252" />
    </linearGradient>
  </defs>
  <sodipodi:namedview
     id="base"
     pagecolor="#ffffff"
     bordercolor="#666666"
     borderopacity="1.0"
     inkscape:pageopacity="0.0"
     inkscape:pageshadow="2"
     inkscape:zoom="5.6"
     inkscape:cx="32.360412"
     inkscape:cy="61.320869"
     inkscape:document-units="px"
     inkscape:current-layer="layer1"
     showgrid="false"
     units="px"
     showborder="true"
     inkscape:window-width="1064"
     inkscape:window-height="981"
     inkscape:window-x="885"
     inkscape:window-y="17"
     inkscape:window-maximized="0" />
  <metadata
     id="metadata7">
    <rdf:RDF>
      <cc:Work
         rdf:about="">
        <dc:format>image/svg+xml</dc:format>
        <dc:type
           rdf:resource="http://purl.org/dc/dcmitype/StillImage" />
        <dc:title />
      </cc:Work>
    </rdf:RDF>
  </metadata>
  <g
     inkscape:label="Layer 1"
     inkscape:groupmode="layer"
     id="layer1"
     transform="translate(0,-988.3622)">
    <path
       style="fill:none;fill-opacity:1;stroke:#32cd32;stroke-width:0;stroke-linecap:butt;stroke-linejoin:miter;stroke-miterlimit:0;stroke-dasharray:none;stroke-dashoffset:0;stroke-opacity:1"
       d="m 3.0712742,1001.4348 26.3670498,0 0,51.6245 -26.3670498,0 z"
       id="rect4165"
       inkscape:connector-curvature="0" />
    <path
       style="fill:none;fill-opacity:1;stroke:#32cd32;stroke-width:0;stroke-linecap:butt;stroke-linejoin:miter;stroke-miterlimit:0;stroke-dasharray:none;stroke-dashoffset:0;stroke-opacity:1"
       d="m 10.894466,1000.2341 15.211762,0 0,17.108 -15.211762,0 z"
       id="rect4185"
       inkscape:connector-curvature="0" />
    <path
       style="fill:#32cd32;fill-opacity:1;stroke:none;stroke-width:5;stroke-linecap:butt;stroke-linejoin:miter;stroke-miterlimit:4;stroke-dasharray:none;stroke-dashoffset:0;stroke-opacity:1"
       d="m 4.7781414,1005.02 44.6644146,0 0,41.5975 -44.6644146,0 z"
       id="rect4142"
       inkscape:connector-curvature="0" />
    <path
       style="fill:#32cd32;fill-opacity:1;stroke:none;stroke-width:5;stroke-linecap:butt;stroke-linejoin:miter;stroke-miterlimit:4;stroke-dasharray:none;stroke-dashoffset:0;stroke-opacity:1"
       d="m 38.303509,1003.0382 a 10.23803,10.605302 0 0 1 -10.238028,10.6053 10.23803,10.605302 0 0 1 -10.23803,-10.6053 10.23803,10.605302 0 0 1 10.23803,-10.60526 10.23803,10.605302 0 0 1 10.238028,10.60526 z"
       id="path4162"
       inkscape:connector-curvature="0" />
    <path
       style="fill:#ffffff;fill-opacity:1;stroke:none;stroke-width:5;stroke-linecap:butt;stroke-linejoin:miter;stroke-miterlimit:4;stroke-dasharray:none;stroke-dashoffset:0;stroke-opacity:1"
       d="m 17.412275,1025.8361 a 10.363499,10.735273 0 0 1 -10.3634987,10.7353 10.363499,10.735273 0 0 1 -10.3634984,-10.7353 10.363499,10.735273 0 0 1 10.3634984,-10.7352 10.363499,10.735273 0 0 1 10.3634987,10.7352 z"
       id="path4162-6"
       inkscape:connector-curvature="0" />
    <path
       style="fill:#32cd32;fill-opacity:1;stroke:none;stroke-width:5;stroke-linecap:butt;stroke-linejoin:miter;stroke-miterlimit:4;stroke-dasharray:none;stroke-dashoffset:0;stroke-opacity:1"
       d="m 61.160487,1024.9459 a 10.028917,10.388688 0 0 1 -10.028915,10.3886 10.028917,10.388688 0 0 1 -10.028917,-10.3886 10.028917,10.388688 0 0 1 10.028917,-10.3887 10.028917,10.388688 0 0 1 10.028915,10.3887 z"
       id="path4162-2"
       inkscape:connector-curvature="0" />
    <path
       style="fill:#ffffff;fill-opacity:1;stroke:none;stroke-width:5;stroke-linecap:butt;stroke-linejoin:miter;stroke-miterlimit:4;stroke-dasharray:none;stroke-dashoffset:0;stroke-opacity:1"
       d="m 38.634675,1043.8756 a 10.572612,10.951888 0 0 1 -10.572611,10.9518 10.572612,10.951888 0 0 1 -10.572614,-10.9518 10.572612,10.951888 0 0 1 10.572614,-10.9519 10.572612,10.951888 0 0 1 10.572611,10.9519 z"
       id="path4162-9"
       inkscape:connector-curvature="0" />
  </g>
</svg>
